<?xml version="1.0" encoding="utf-8"?>

<!DOCTYPE svg PUBLIC "-//W3C//DTD SVG 1.1//EN" "http://www.w3.org/Graphics/SVG/1.1/DTD/svg11.dtd">
<svg version="1.1" id="Layer_1" xmlns="http://www.w3.org/2000/svg" xmlns:xlink="http://www.w3.org/1999/xlink" x="0px" y="0px"
	 viewBox="0 0 2615.59 1627.975" enable-background="new 0 0 2615.59 1627.975" xml:space="preserve">
<g>
	<path d="M1124.647,1091.027l111.457,505.051H755.756l69.339-322.119c-136.774-32.413-339.889-182.064-443.287-261.24
		c-182.137-177.207-222.073-253.041-297.3-380.025C71.141,604.8,39.915,543.973,27.795,496.151l59.238-86.868
		c149.163,200.674,115.844,170.436,354.011,417.861l-24.706,40.471c25.635-3.802,10.442-3.472,74.398,0
		c110.634,16.564,173.858,16.139,445.536,151.027l24.98,14.475c-202.217-183.66-193.79-158.731-492.977-188.533
		c87.32-128.399,141.211-208.963,274.847-287.233H651.6C398.453,260.145,478.34,360.58,280.177,98.691
		c21.261-24.912,33.287-40.121,59.521-63.83l9.828-2.963h2.523c11.868,6.962,21.991,20.179,61.765,66.793
		C590.541,313.299,692.56,400.968,829.868,519.508c26.331,21.544,127.212,106.208,230.21,177.014
		c36.25-82.616-25.742-177.244-106.401-351.068c0,0,187.104-95.234,188.094-95.738c5.363-2.73,217.277,316.888,19.6,761.945
		C1149.538,1038.304,1136.754,1064.509,1124.647,1091.027z M265.304,382.965c101.448,126.277,138.779,172.8,265.015,307.636
		l-76.637,101.672C298.075,626.769,179.375,516.93,35.097,284.586l74.394-90.149C131.807,210.485,107.227,185.41,265.304,382.965z
		 M631.952,574.455l-86.753,90.153C428.662,539.151,192.833,251.933,99.387,136.527l96.57-95.744
		C324.784,220.164,491.466,410.047,631.952,574.455z"/>
	<path d="M1473.815,249.715l188.098,95.74c-90.969,196.04-131.076,247.71-111.453,339.554l5.052,11.514
		c203.419-139.84,440.119-347.5,646.264-597.832c39.773-46.614,49.897-59.831,61.765-66.793h2.523l9.828,2.963
		c26.233,23.709,38.26,38.918,59.521,63.83c-198.164,261.89-118.276,161.455-371.424,458.66h-91.522
		c134.022,78.496,187.912,159.4,274.847,287.233c-299.697,29.853-291.587,5.622-492.978,188.533
		c116.853-67.712,255.314-116.561,284.947-127.662c106.445-29.666,86.255-22.971,185.569-37.84c63.956-3.472,48.763-3.802,74.398,0
		l-24.705-40.471c238.167-247.425,204.848-217.187,354.011-417.861l59.239,86.868c-12.179,48.056-43.862,109.726-56.713,136.543
		c-191.98,324.065-320.694,414.807-587.026,577.437c-135.499,61.792-109.323,53.345-153.562,63.829l69.339,322.119h-480.349
		c0,0,111.432-504.937,111.457-505.051c2.153-9.758-18.803-40.287-23.231-49.81c-8.561-18.413-16.947-36.908-24.737-55.662
		C1343.034,744.964,1337.111,453.786,1473.815,249.715z M2506.099,194.437l74.394,90.149
		c-144.337,232.44-262.983,342.189-418.585,507.687l-76.637-101.672c126.236-134.836,163.567-181.359,265.015-307.636
		C2508.364,185.41,2483.783,210.485,2506.099,194.437z M2419.633,40.783l96.57,95.744
		c-94.84,117.128-327.825,401.065-445.812,528.081l-86.753-90.153C2124.124,410.047,2290.806,220.164,2419.633,40.783z"/>
</g>
</svg>
